<svg xmlns="http://www.w3.org/2000/svg" xmlns:xlink="http://www.w3.org/1999/xlink" width="700" zoomAndPan="magnify" viewBox="0 0 525 525.000007" height="700" preserveAspectRatio="xMidYMid meet" version="1.0"><defs><g/><clipPath id="id1"><path d="M 75.355469 75 L 449 75 L 449 447.847656 L 75.355469 447.847656 Z M 75.355469 75 " clip-rule="nonzero"/></clipPath></defs><g fill="#ffffff" fill-opacity="1"><g transform="translate(149.826996, 329.188128)"><g><path d="M 14.042969 -132.777344 L 67.742188 -29.808594 L 100.507812 -29.808594 L 100.507812 -30.792969 L 46.804688 -133.761719 L 14.042969 -133.761719 Z M 91.390625 -70.207031 L 106.664062 -40.644531 L 107.652344 -40.644531 L 130.558594 -95.085938 C 128.589844 -83.261719 127.851562 -71.4375 127.851562 -59.859375 L 127.851562 0 L 159.875 0 L 159.875 -133.761719 L 118.734375 -133.761719 Z M 13.546875 0 L 43.601562 0 L 43.601562 -54.441406 L 14.535156 -110.605469 L 13.546875 -110.605469 Z M 13.546875 0 "/></g></g></g><g fill="#ffffff" fill-opacity="1"><g transform="translate(258.629803, 329.188128)"><g><path d="M 60.105469 -41.632812 C 94.59375 -41.632812 116.519531 -60.351562 116.519531 -89.914062 C 116.519531 -118.734375 97.058594 -133.761719 61.09375 -133.761719 L 13.546875 -133.761719 L 13.546875 -108.636719 L 61.09375 -108.636719 C 75.625 -108.636719 83.507812 -101.246094 83.507812 -87.695312 C 83.507812 -74.148438 74.640625 -65.773438 60.105469 -65.773438 L 56.164062 -65.773438 L 56.164062 -41.632812 Z M 45.820312 0 L 45.820312 -98.78125 L 13.546875 -98.78125 L 13.546875 0 Z M 45.820312 0 "/></g></g></g><path fill="#ffffff" d="M 281.996094 136.289062 C 278.402344 135.832031 275.855469 132.546875 276.3125 128.960938 C 276.769531 125.375 280.0625 122.828125 283.65625 123.285156 C 286.683594 123.671875 288.960938 126.0625 289.332031 128.953125 C 289.402344 129.492188 289.414062 130.046875 289.339844 130.613281 C 289.238281 131.425781 288.980469 132.179688 288.617188 132.863281 C 287.371094 135.195312 284.777344 136.640625 281.996094 136.289062 Z M 127.441406 245.585938 C 124 274.667969 129.960938 303.484375 144.671875 328.914062 C 162.761719 360.183594 191.964844 382.550781 226.90625 391.894531 C 238.578125 395.015625 250.417969 396.558594 262.179688 396.558594 C 285.648438 396.558594 308.8125 390.414062 329.675781 378.390625 C 361.007812 360.339844 383.417969 331.191406 392.777344 296.3125 C 402.140625 261.4375 397.335938 225.011719 379.25 193.742188 C 360.128906 160.6875 328.433594 137.601562 291.390625 129.390625 C 291.203125 125.3125 288.105469 121.824219 283.910156 121.289062 C 279.214844 120.695312 274.910156 124.019531 274.3125 128.707031 C 273.714844 133.390625 277.046875 137.6875 281.742188 138.285156 C 285.570312 138.769531 289.140625 136.644531 290.652344 133.300781 C 326.550781 141.292969 357.261719 163.6875 375.800781 195.730469 C 412.039062 258.378906 390.457031 338.777344 327.6875 374.949219 C 307.429688 386.621094 284.953125 392.582031 262.175781 392.582031 C 250.757812 392.582031 239.261719 391.082031 227.9375 388.054688 C 194.023438 378.984375 165.679688 357.277344 148.121094 326.925781 C 120.515625 279.199219 125.542969 220.417969 160.144531 178.285156 C 163.019531 179.671875 166.574219 179.140625 168.90625 176.722656 C 171.804688 173.710938 171.710938 168.925781 168.695312 166.03125 C 165.679688 163.136719 160.882812 163.234375 157.984375 166.242188 C 155.46875 168.855469 155.210938 172.804688 157.160156 175.695312 C 149.792969 184.675781 143.605469 194.554688 138.753906 205.183594 C 132.902344 218.003906 129.097656 231.59375 127.441406 245.585938 " fill-opacity="1" fill-rule="nonzero"/><path fill="#ffffff" d="M 281.742188 138.285156 C 280.90625 138.175781 280.523438 138.128906 280.421875 138.117188 C 280.84375 138.167969 285.269531 138.730469 281.742188 138.285156 " fill-opacity="1" fill-rule="nonzero"/><path fill="#ffffff" d="M 114.773438 309.886719 C 118.015625 309.625 121.203125 311.433594 122.527344 314.585938 C 124.175781 318.511719 122.320312 323.035156 118.390625 324.679688 C 114.464844 326.324219 109.929688 324.476562 108.28125 320.554688 L 108.273438 320.542969 C 106.84375 317.121094 108.074219 313.246094 111.019531 311.222656 C 111.449219 310.925781 111.914062 310.667969 112.417969 310.457031 C 113.1875 310.132812 113.980469 309.953125 114.773438 309.886719 Z M 388.792969 165.671875 C 375.964844 148.726562 360.035156 134.703125 341.449219 123.992188 C 322.863281 113.28125 302.730469 106.527344 281.609375 103.910156 C 261.210938 101.386719 240.753906 102.808594 220.808594 108.140625 C 200.867188 113.476562 182.4375 122.449219 166.039062 134.820312 C 149.058594 147.625 135.003906 163.523438 124.273438 182.070312 C 101.84375 220.847656 96.921875 266.523438 110.273438 308.902344 C 105.996094 311.421875 104.121094 316.773438 106.09375 321.464844 C 108.246094 326.589844 114.171875 329.011719 119.308594 326.863281 C 124.4375 324.714844 126.867188 318.800781 124.71875 313.679688 C 125.253906 314.957031 125.789062 316.230469 124.714844 313.671875 C 123.640625 311.117188 124.175781 312.386719 124.710938 313.667969 C 122.90625 309.375 118.453125 306.996094 114.039062 307.597656 C 101.070312 266.308594 105.878906 221.828125 127.726562 184.058594 C 148.425781 148.273438 181.847656 122.675781 221.84375 111.980469 C 261.832031 101.289062 303.601562 106.777344 339.457031 127.433594 C 375.3125 148.097656 400.957031 181.457031 411.671875 221.371094 C 422.386719 261.285156 416.890625 302.972656 396.1875 338.757812 C 363.648438 395.011719 300.574219 424.546875 237.089844 414.152344 C 236.96875 410.269531 234.292969 406.78125 230.328125 405.804688 C 225.550781 404.628906 220.71875 407.539062 219.539062 412.308594 C 218.359375 417.078125 221.277344 421.898438 226.054688 423.074219 C 230.316406 424.125 234.609375 421.917969 236.328125 418.046875 C 244.746094 419.417969 253.253906 420.113281 261.789062 420.113281 C 266.878906 420.113281 271.984375 419.867188 277.085938 419.378906 C 293.574219 417.789062 309.65625 413.671875 324.878906 407.140625 C 356.515625 393.558594 382.367188 370.601562 399.640625 340.746094 C 410.367188 322.195312 417.140625 302.101562 419.757812 281.023438 C 422.292969 260.664062 420.863281 240.246094 415.523438 220.339844 C 410.175781 200.4375 401.183594 182.042969 388.792969 165.671875 " fill-opacity="1" fill-rule="nonzero"/><g clip-path="url(#id1)"><path fill="#ffffff" d="M 398.34375 371.867188 C 401.378906 367.886719 407.089844 367.109375 411.082031 370.136719 C 415.070312 373.167969 415.847656 378.867188 412.816406 382.847656 L 412.8125 382.855469 C 410.085938 386.425781 405.210938 387.40625 401.355469 385.382812 C 400.914062 385.152344 400.484375 384.890625 400.074219 384.582031 C 399.394531 384.0625 398.8125 383.464844 398.324219 382.8125 C 395.941406 379.648438 395.828125 375.171875 398.34375 371.867188 Z M 448.191406 202.777344 C 446.726562 197.710938 441.75 194.613281 436.664062 195.332031 C 431.007812 180.433594 423.449219 166.320312 414.113281 153.261719 C 402.816406 137.457031 389.175781 123.554688 373.582031 111.941406 C 357.808594 100.191406 340.394531 91.058594 321.824219 84.796875 C 302.617188 78.324219 282.503906 75.039062 262.042969 75.039062 C 236.839844 75.039062 212.390625 79.964844 189.375 89.683594 C 167.144531 99.066406 147.179688 112.503906 130.035156 129.613281 C 112.890625 146.722656 99.433594 166.652344 90.027344 188.839844 C 80.292969 211.8125 75.355469 236.214844 75.355469 261.367188 C 75.355469 286.519531 80.292969 310.921875 90.027344 333.894531 C 99.433594 356.082031 112.890625 376.007812 130.035156 393.117188 C 147.179688 410.230469 167.144531 423.664062 189.375 433.046875 C 212.390625 442.765625 236.839844 447.691406 262.042969 447.691406 C 290.789062 447.691406 318.363281 441.34375 344 428.824219 C 364.742188 418.691406 383.691406 404.523438 399.417969 387.496094 C 404.546875 390.605469 411.324219 389.40625 415.035156 384.535156 C 418.996094 379.335938 417.980469 371.882812 412.769531 367.925781 C 407.558594 363.96875 400.09375 364.980469 396.125 370.183594 C 396.617188 369.535156 397.109375 368.894531 397.234375 368.726562 C 397.144531 368.84375 396.820312 369.269531 396.125 370.183594 C 394.140625 372.78125 395.132812 371.488281 396.121094 370.1875 C 392.726562 374.644531 393 380.75 396.421875 384.894531 C 361.839844 422.414062 313.527344 443.714844 262.042969 443.714844 C 161.300781 443.714844 79.339844 361.914062 79.339844 261.367188 C 79.339844 160.816406 161.300781 79.015625 262.042969 79.015625 C 338.738281 79.015625 406.097656 125.847656 432.898438 196.621094 C 428.808594 198.96875 426.679688 203.867188 428.050781 208.589844 C 429.660156 214.140625 435.472656 217.339844 441.035156 215.734375 C 446.597656 214.132812 449.800781 208.328125 448.191406 202.777344 " fill-opacity="1" fill-rule="nonzero"/></g></svg>